<svg width="28" height="28" viewBox="0 0 28 28" fill="none" xmlns="http://www.w3.org/2000/svg">
<path fill-rule="evenodd" clip-rule="evenodd" d="M0.140894 27.1613C-0.0542496 27.3567 -0.0503175 27.6694 0.149676 27.8598C0.34967 28.0503 0.669993 28.0462 0.865136 27.8508L14.0001 14.7L27.135 27.8508C27.3301 28.0462 27.6505 28.0503 27.8505 27.8598C28.0505 27.6694 28.0544 27.3567 27.8592 27.1613L14.7065 13.9926L27.8445 0.838757C28.0396 0.643376 28.0357 0.330629 27.8357 0.140216C27.6357 -0.0501967 27.3154 -0.0461692 27.1202 0.149211L14.0001 13.2853L0.879922 0.149211C0.684778 -0.0461692 0.364456 -0.0501967 0.164462 0.140216C-0.0355323 0.330629 -0.0394642 0.643376 0.155679 0.838757L13.2936 13.9926L0.140894 27.1613Z" fill="white"/>
</svg>
