<svg width="28" height="28" viewBox="0 0 28 28" fill="none" xmlns="http://www.w3.org/2000/svg">
<path fill-rule="evenodd" clip-rule="evenodd" d="M0.143824 27.1613C-0.0513199 27.3567 -0.0473878 27.6694 0.152606 27.8598C0.3526 28.0503 0.672922 28.0462 0.868066 27.8508L14.003 14.7L27.1379 27.8508C27.3331 28.0462 27.6534 28.0503 27.8534 27.8598C28.0534 27.6694 28.0573 27.3567 27.8622 27.1613L14.7095 13.9926L27.8474 0.838757C28.0425 0.643376 28.0386 0.330629 27.8386 0.140216C27.6386 -0.0501967 27.3183 -0.0461692 27.1231 0.149211L14.003 13.2853L0.882851 0.149211C0.687708 -0.0461692 0.367385 -0.0501967 0.167391 0.140216C-0.0326026 0.330629 -0.0365345 0.643376 0.158609 0.838757L13.2965 13.9926L0.143824 27.1613Z" fill="#373434"/>
</svg>
