<svg width="361" height="40" viewBox="0 0 361 40" fill="none" xmlns="http://www.w3.org/2000/svg">
<g clip-path="url(#clip0_430_1875)">
<path d="M5.2384 27.3473C5.42114 29.9692 6.85256 32.0424 9.50222 33.5668C12.1519 35.0912 15.9284 35.8534 20.7404 35.8534C24.791 35.8534 28.1412 35.3351 30.8213 34.2985C33.5014 33.2619 34.811 31.6766 34.811 29.4814C34.811 28.0485 34.141 26.829 32.8009 25.8534C31.4609 24.8778 29.268 24.0546 26.2529 23.3839L13.6747 20.518C5.84752 18.7802 1.91872 15.4266 1.91872 10.3961C1.91872 6.92046 3.56333 4.32899 6.85256 2.59119C10.1418 0.853385 14.3447 -0.0307617 19.4613 -0.0307617C24.9738 -0.0307617 29.4812 0.975336 32.9227 2.95704C36.3642 4.93875 38.3134 7.71314 38.7093 11.3107L33.5319 11.5241C33.2882 9.35948 31.8872 7.5607 29.329 6.18875C26.8011 4.8168 23.451 4.11558 19.2785 4.11558C15.7457 4.11558 12.8828 4.63387 10.69 5.70095C8.49717 6.73753 7.40076 8.23143 7.40076 10.1522C7.40076 13.018 10.1722 15.0607 15.6847 16.2802L27.7757 18.8717C32.07 19.7863 35.2374 21.0668 37.2779 22.6522C39.288 24.268 40.3235 26.4022 40.3235 29.0851C40.3235 32.6827 38.5875 35.3961 35.146 37.2253C31.7045 39.0546 26.8925 39.9692 20.7404 39.9692C14.2533 39.9692 9.25857 38.9022 5.75615 36.768C2.25373 34.6339 0.335014 31.5241 0 27.4997L5.2384 27.3473Z" fill="white"/>
<path d="M84.3931 0.670898H89.9056V23.7197C89.9056 28.9026 88.1696 32.927 84.6976 35.7624C81.2257 38.5977 76.0482 40.0307 69.1652 40.0307C62.2821 40.0307 57.0437 38.6282 53.5718 35.7624C50.0998 32.8965 48.3638 28.9026 48.3638 23.7197V0.670898H53.8763V23.1709C53.8763 27.1953 55.1555 30.2441 57.7138 32.3477C60.2721 34.4514 64.079 35.488 69.1652 35.488C74.2513 35.488 77.9973 34.4514 80.5556 32.3477C83.1139 30.2441 84.3931 27.1953 84.3931 23.1709V0.670898Z" fill="white"/>
<path d="M139.853 19.512H160.441V36.3717C154.076 38.8108 147.589 40.0303 141.01 40.0303C133.031 40.0303 126.848 38.2315 122.463 34.6034C118.077 30.9754 115.884 26.1278 115.884 20.0303C115.884 13.9327 117.894 9.23759 121.915 5.54857C125.935 1.85954 131.539 0.0302734 138.757 0.0302734C144.3 0.0302734 148.959 1.09735 152.705 3.201C156.452 5.30466 158.766 8.201 159.68 11.8595L154.441 12.2559C153.589 9.90832 151.761 8.01808 148.898 6.64613C146.036 5.27418 142.686 4.57296 138.757 4.57296C133.275 4.57296 129.011 6.00588 125.965 8.90222C122.92 11.7986 121.397 15.5181 121.397 20.0303C121.397 24.5425 123.102 28.323 126.544 31.1888C129.985 34.0547 134.858 35.4876 141.132 35.4876C146.127 35.4876 150.878 34.7864 155.325 33.3839V23.323H139.823V19.512H139.853Z" fill="white"/>
<path d="M203.323 39.3294L187.425 23.5368H174.512V39.3294H168.999V0.670898H194.552C198.755 0.670898 202.105 1.677 204.633 3.68919C207.16 5.70139 208.409 8.56724 208.409 12.2868C208.409 16.0063 207.16 18.8111 204.724 20.7014C202.288 22.5916 198.876 23.5368 194.582 23.5368H193.912L210.541 39.3294H203.353H203.323ZM174.512 5.15261V19.299H194.278C196.897 19.299 198.968 18.6892 200.552 17.4697C202.105 16.2502 202.897 14.5124 202.897 12.2868C202.897 10.0611 202.105 8.23187 200.552 7.01236C198.998 5.79285 196.897 5.15261 194.278 5.15261H174.512Z" fill="white"/>
<path d="M220.104 34.4512C215.932 30.7622 213.861 25.9451 213.861 20C213.861 14.0549 215.932 9.26829 220.104 5.54878C224.277 1.85976 230.094 0 237.616 0C245.139 0 250.956 1.85976 255.128 5.54878C259.301 9.23781 261.402 14.0549 261.402 20C261.402 25.9451 259.301 30.7317 255.128 34.4512C250.956 38.1402 245.108 40 237.616 40C230.124 40 224.277 38.1402 220.104 34.4512ZM224.155 8.87195C220.987 11.7683 219.373 15.4878 219.373 20C219.373 24.5122 220.957 28.2317 224.155 31.128C227.322 34.0244 231.83 35.4573 237.586 35.4573C243.342 35.4573 247.91 34.0244 251.078 31.128C254.245 28.2317 255.859 24.5122 255.859 20C255.859 15.4878 254.276 11.7683 251.078 8.87195C247.91 5.97561 243.403 4.54268 237.586 4.54268C231.769 4.54268 227.322 5.97561 224.155 8.87195Z" fill="white"/>
<path d="M305.715 0.670898H311.228V23.7197C311.228 28.9026 309.492 32.927 306.02 35.7624C302.548 38.5977 297.371 40.0307 290.488 40.0307C283.605 40.0307 278.366 38.6282 274.894 35.7624C271.422 32.8965 269.686 28.9026 269.686 23.7197V0.670898H275.199V23.1709C275.199 27.1953 276.478 30.2441 279.036 32.3477C281.595 34.4514 285.401 35.488 290.488 35.488C295.574 35.488 299.32 34.4514 301.878 32.3477C304.436 30.2441 305.715 27.1953 305.715 23.1709V0.670898Z" fill="white"/>
<path d="M347.044 0.670898C351.247 0.670898 354.597 1.677 357.125 3.71968C359.653 5.73187 360.901 8.6587 360.901 12.5002C360.901 16.3416 359.653 19.238 357.216 21.1892C354.749 23.1404 351.369 24.116 347.074 24.116H327.583V39.3599H322.07V0.670898H347.074H347.044ZM346.709 19.7868C349.389 19.7868 351.521 19.1465 353.044 17.8965C354.597 16.6465 355.358 14.8477 355.358 12.4697C355.358 10.0916 354.597 8.32334 353.044 7.04285C351.49 5.79285 349.389 5.15261 346.709 5.15261H327.552V19.7258H346.709V19.7868Z" fill="white"/>
</g>
<defs>
<clipPath id="clip0_430_1875">
<rect width="360.901" height="40" fill="white"/>
</clipPath>
</defs>
</svg>
