<svg width="24" height="24" viewBox="0 0 24 24" fill="none" xmlns="http://www.w3.org/2000/svg">
<path fill-rule="evenodd" clip-rule="evenodd" d="M6.85244 2.88905C6.55955 2.59615 6.17567 2.44971 5.79178 2.44971C5.4079 2.44971 5.02402 2.59615 4.73112 2.88905L3.82595 3.79422C3.136 4.48417 2.70771 5.35716 2.56292 6.27488C2.41813 7.1926 2.55682 8.15505 3.00084 9.02392C4.16334 11.2988 5.87415 13.5619 8.12871 15.8164C10.3833 18.071 12.6464 19.7818 14.9212 20.9443C15.7901 21.3883 16.7525 21.527 17.6703 21.3822C18.588 21.2374 19.461 20.8092 20.1509 20.1192L21.0561 19.214C21.349 18.9211 21.4954 18.5372 21.4954 18.1534C21.4954 17.7695 21.349 17.3856 21.0561 17.0927L19.1597 15.1963C18.898 14.9346 18.555 14.8038 18.2121 14.8038C17.8691 14.8038 17.5261 14.9346 17.2645 15.1963L16.4312 16.0295C16.1906 16.2702 15.8848 16.419 15.513 16.4412C15.2219 16.4586 14.8811 16.3952 14.4807 16.2014C13.3605 15.6202 12.0997 14.6364 10.7042 13.2409C9.20329 11.74 8.17101 10.3868 7.59602 9.18897C7.45825 8.90195 7.41859 8.58708 7.46966 8.28768C7.52072 7.98828 7.66251 7.70436 7.88763 7.47923L8.7175 6.64933C8.97918 6.38765 9.11002 6.04469 9.11002 5.70172C9.11002 5.35875 8.97918 5.01579 8.71751 4.75411L6.85244 2.88905ZM5.30753 3.72581C5.59 3.47657 5.93893 3.36025 6.20479 3.64273C6.32327 3.76861 6.61993 4.05618 6.92715 4.35398C7.30932 4.72444 7.70782 5.11072 7.79993 5.22126C7.82572 5.2522 7.85791 5.28354 7.89165 5.3164C8.07537 5.49529 8.30528 5.71917 7.79993 6.16837C7.20176 6.70008 6.46897 7.40631 6.44553 8.32819C6.42209 9.25006 6.81272 10.211 7.89866 11.5782C8.98459 12.9454 11.1721 15.2657 12.7658 16.3438C14.3596 17.4219 15.4221 17.6251 16.1252 17.3438C16.8283 17.0626 17.6721 16.2188 17.9221 15.9688C18.1721 15.7188 18.3908 15.7969 18.5471 15.9688C18.611 16.0391 18.8941 16.326 19.2216 16.6578C19.6952 17.1378 20.2615 17.7116 20.3908 17.8594C20.6096 18.1094 20.4533 18.3438 20.2658 18.5782C20.0783 18.8126 19.1877 19.7032 18.8127 19.9376C18.4377 20.1719 16.9221 20.7969 15.5471 20.1719C14.1721 19.5469 12.1096 18.0626 10.969 17.0782C9.82834 16.0938 7.50022 13.9219 6.26584 12.2501C5.03147 10.5782 3.93772 8.82819 3.73459 8.23444C3.53147 7.64069 3.35959 6.75006 3.73459 5.79694C4.05696 4.97758 4.41397 4.6201 4.61702 4.41678C4.65017 4.38359 4.67922 4.3545 4.70334 4.32819C4.84084 4.17819 5.16342 3.8641 5.30753 3.72581Z" fill="#373434"/>
</svg>
