<svg width="24" height="24" viewBox="0 0 24 24" fill="none" xmlns="http://www.w3.org/2000/svg">
<path fill-rule="evenodd" clip-rule="evenodd" d="M6.85223 2.88905C6.55934 2.59615 6.17545 2.44971 5.79157 2.44971C5.40769 2.44971 5.0238 2.59615 4.73091 2.88905L3.82574 3.79422C3.13578 4.48417 2.7075 5.35716 2.56271 6.27488C2.41791 7.1926 2.55661 8.15505 3.00062 9.02392C4.16313 11.2988 5.87394 13.5619 8.12849 15.8164C10.383 18.071 12.6462 19.7818 14.921 20.9443C15.7899 21.3883 16.7523 21.527 17.6701 21.3822C18.5878 21.2374 19.4608 20.8092 20.1507 20.1192L21.0559 19.214C21.3488 18.9211 21.4952 18.5372 21.4952 18.1534C21.4952 17.7695 21.3488 17.3856 21.0559 17.0927L19.1595 15.1963C18.8978 14.9346 18.5548 14.8038 18.2119 14.8038C17.8689 14.8038 17.5259 14.9346 17.2643 15.1963L16.431 16.0295C16.1903 16.2702 15.8846 16.419 15.5128 16.4412C15.2217 16.4586 14.8809 16.3952 14.4805 16.2014C13.3603 15.6202 12.0995 14.6364 10.704 13.2409C9.20308 11.74 8.17079 10.3868 7.59581 9.18897C7.45803 8.90195 7.41838 8.58708 7.46944 8.28768C7.52051 7.98828 7.6623 7.70436 7.88742 7.47923L8.71729 6.64933C8.97897 6.38765 9.10981 6.04469 9.10981 5.70172C9.10981 5.35875 8.97897 5.01579 8.71729 4.75411L6.85223 2.88905ZM5.30732 3.72581C5.58979 3.47657 5.93872 3.36025 6.20458 3.64273C6.32306 3.76861 6.61972 4.05618 6.92694 4.35398C7.30911 4.72444 7.70761 5.11072 7.79972 5.22126C7.82551 5.2522 7.85769 5.28354 7.89144 5.3164C8.07516 5.49529 8.30507 5.71917 7.79972 6.16837C7.20154 6.70008 6.46875 7.40631 6.44532 8.32819C6.42188 9.25006 6.8125 10.211 7.89844 11.5782C8.98438 12.9454 11.1719 15.2657 12.7656 16.3438C14.3594 17.4219 15.4219 17.6251 16.125 17.3438C16.8281 17.0626 17.6719 16.2188 17.9219 15.9688C18.1719 15.7188 18.3906 15.7969 18.5469 15.9688C18.6107 16.0391 18.8939 16.326 19.2213 16.6578C19.695 17.1378 20.2613 17.7116 20.3906 17.8594C20.6094 18.1094 20.4531 18.3438 20.2656 18.5782C20.0781 18.8126 19.1875 19.7032 18.8125 19.9376C18.4375 20.1719 16.9219 20.7969 15.5469 20.1719C14.1719 19.5469 12.1094 18.0626 10.9688 17.0782C9.82813 16.0938 7.5 13.9219 6.26563 12.2501C5.03125 10.5782 3.9375 8.82819 3.73438 8.23444C3.53125 7.64069 3.35938 6.75006 3.73438 5.79694C4.05675 4.97758 4.41375 4.6201 4.6168 4.41678C4.64996 4.38359 4.679 4.3545 4.70312 4.32819C4.84062 4.17819 5.16321 3.8641 5.30732 3.72581Z" fill="white"/>
</svg>
